# Blender v2.79 (sub 0) OBJ File: ''
# www.blender.org
mtllib crystal.mtl
o Cone
v 0.000000 -0.030197 -1.000000
v 1.000000 -0.030197 0.000000
v -0.000000 -0.030197 1.000000
v -1.000000 -0.030197 -0.000000
v 0.000000 1.969803 0.000000
v 0.000000 -2.088758 0.000000
vn 0.6667 0.3333 -0.6667
vn 0.6667 0.3333 0.6667
vn -0.6667 0.3333 0.6667
vn -0.6667 0.3333 -0.6667
vn -0.6688 -0.3249 -0.6688
vn -0.6688 -0.3249 0.6688
vn 0.6688 -0.3249 0.6688
vn 0.6688 -0.3249 -0.6688
usemtl None
s off
f 1//1 5//1 2//1
f 2//2 5//2 3//2
f 3//3 5//3 4//3
f 4//4 5//4 1//4
f 1//5 6//5 4//5
f 4//6 6//6 3//6
f 3//7 6//7 2//7
f 6//8 1//8 2//8
